<mxfile host="app.diagrams.net" modified="2023-12-08T09:07:30.683Z" agent="Mozilla/5.0 (Windows NT 10.0; Win64; x64; rv:120.0) Gecko/20100101 Firefox/120.0" etag="x4BHmK8XCmamGg4i8xND" version="22.1.7" type="github">
  <diagram name="Page-1" id="NbJdueskdxbgubcl_R5I">
    <mxGraphModel dx="1050" dy="654" grid="1" gridSize="10" guides="1" tooltips="1" connect="1" arrows="1" fold="1" page="1" pageScale="1" pageWidth="850" pageHeight="1100" math="0" shadow="0">
      <root>
        <mxCell id="0" />
        <mxCell id="1" parent="0" />
        <mxCell id="IPOeObjtuyeyihLrWlBP-1" value="" style="rounded=0;whiteSpace=wrap;verticalAlign=middle;align=center;" parent="1" vertex="1">
          <mxGeometry x="300" y="540" width="230" height="180" as="geometry" />
        </mxCell>
        <mxCell id="IPOeObjtuyeyihLrWlBP-30" value="" style="edgeStyle=none;rounded=0;orthogonalLoop=1;jettySize=auto;exitX=1;exitY=0.5;exitDx=0;exitDy=0;entryX=0;entryY=0.5;entryDx=0;entryDy=0;fillColor=#fa6800;strokeColor=#C73500;verticalAlign=middle;align=center;" parent="1" source="IPOeObjtuyeyihLrWlBP-2" target="IPOeObjtuyeyihLrWlBP-16" edge="1">
          <mxGeometry relative="1" as="geometry" />
        </mxCell>
        <mxCell id="IPOeObjtuyeyihLrWlBP-2" value="Password Candidates" style="rounded=0;whiteSpace=wrap;verticalAlign=middle;align=center;" parent="1" vertex="1">
          <mxGeometry x="320" y="580" width="190" height="40" as="geometry" />
        </mxCell>
        <mxCell id="IPOeObjtuyeyihLrWlBP-27" value="" style="edgeStyle=none;rounded=0;orthogonalLoop=1;jettySize=auto;exitX=1;exitY=0.5;exitDx=0;exitDy=0;entryX=0;entryY=0.5;entryDx=0;entryDy=0;fillColor=#d5e8d4;strokeColor=#82b366;verticalAlign=middle;align=center;" parent="1" source="IPOeObjtuyeyihLrWlBP-3" target="IPOeObjtuyeyihLrWlBP-16" edge="1">
          <mxGeometry relative="1" as="geometry" />
        </mxCell>
        <mxCell id="IPOeObjtuyeyihLrWlBP-3" value="Password Candidates" style="rounded=0;whiteSpace=wrap;verticalAlign=middle;align=center;" parent="1" vertex="1">
          <mxGeometry x="320" y="660" width="190" height="40" as="geometry" />
        </mxCell>
        <mxCell id="IPOeObjtuyeyihLrWlBP-5" value="Shared Memory" style="text;strokeColor=none;fillColor=none;fontSize=12;fontStyle=0;verticalAlign=middle;align=center;" parent="1" vertex="1">
          <mxGeometry x="367.5" y="550" width="95" height="20" as="geometry" />
        </mxCell>
        <mxCell id="IPOeObjtuyeyihLrWlBP-6" value="Buffer 1" style="text;strokeColor=none;fillColor=none;fontSize=12;fontStyle=0;verticalAlign=middle;align=center;" parent="1" vertex="1">
          <mxGeometry x="320" y="560" width="40" height="20" as="geometry" />
        </mxCell>
        <mxCell id="IPOeObjtuyeyihLrWlBP-16" value="Core Controller" style="rounded=0;whiteSpace=wrap;verticalAlign=middle;align=center;" parent="1" vertex="1">
          <mxGeometry x="570" y="610" width="120" height="60" as="geometry" />
        </mxCell>
        <mxCell id="IPOeObjtuyeyihLrWlBP-29" value="" style="edgeStyle=none;rounded=0;orthogonalLoop=1;jettySize=auto;exitX=1;exitY=0.5;exitDx=0;exitDy=0;entryX=0;entryY=0.5;entryDx=0;entryDy=0;fillColor=#fa6800;strokeColor=#C73500;verticalAlign=middle;align=center;" parent="1" source="IPOeObjtuyeyihLrWlBP-24" target="IPOeObjtuyeyihLrWlBP-3" edge="1">
          <mxGeometry relative="1" as="geometry" />
        </mxCell>
        <mxCell id="IPOeObjtuyeyihLrWlBP-24" value="Communication Controller" style="rounded=0;whiteSpace=wrap;verticalAlign=middle;align=center;" parent="1" vertex="1">
          <mxGeometry x="140" y="600" width="120" height="60" as="geometry" />
        </mxCell>
        <mxCell id="IPOeObjtuyeyihLrWlBP-25" value="" style="endArrow=classic;rounded=0;exitX=1;exitY=0.5;exitDx=0;exitDy=0;entryX=0;entryY=0.5;entryDx=0;entryDy=0;fillColor=#d5e8d4;strokeColor=#82b366;verticalAlign=middle;align=center;" parent="1" source="IPOeObjtuyeyihLrWlBP-24" target="IPOeObjtuyeyihLrWlBP-2" edge="1">
          <mxGeometry width="50" height="50" relative="1" as="geometry">
            <mxPoint x="400" y="690" as="sourcePoint" />
            <mxPoint x="450" y="640" as="targetPoint" />
          </mxGeometry>
        </mxCell>
        <mxCell id="Q5ZDdtr7qOmOro9bU3uU-1" value="Step 1" style="text;strokeColor=none;fillColor=none;align=center;verticalAlign=middle;whiteSpace=wrap;rounded=0;" parent="1" vertex="1">
          <mxGeometry x="240" y="570" width="60" height="30" as="geometry" />
        </mxCell>
        <mxCell id="Q5ZDdtr7qOmOro9bU3uU-2" value="Step 1" style="text;strokeColor=none;fillColor=none;align=center;verticalAlign=middle;whiteSpace=wrap;rounded=0;" parent="1" vertex="1">
          <mxGeometry x="530" y="670" width="60" height="30" as="geometry" />
        </mxCell>
        <mxCell id="Q5ZDdtr7qOmOro9bU3uU-3" value="Step 2" style="text;strokeColor=none;fillColor=none;align=center;verticalAlign=middle;whiteSpace=wrap;rounded=0;" parent="1" vertex="1">
          <mxGeometry x="240" y="660" width="60" height="30" as="geometry" />
        </mxCell>
        <mxCell id="Q5ZDdtr7qOmOro9bU3uU-6" value="Step 2" style="text;strokeColor=none;fillColor=none;align=center;verticalAlign=middle;whiteSpace=wrap;rounded=0;" parent="1" vertex="1">
          <mxGeometry x="530" y="580" width="60" height="30" as="geometry" />
        </mxCell>
        <mxCell id="ANVsHXFZ9og-axQMzTUk-1" value="Buffer 2" style="text;strokeColor=none;fillColor=none;fontSize=12;fontStyle=0;verticalAlign=middle;align=center;" parent="1" vertex="1">
          <mxGeometry x="320" y="640" width="40" height="20" as="geometry" />
        </mxCell>
        <mxCell id="ANVsHXFZ9og-axQMzTUk-5" value="&lt;font style=&quot;font-size: 18px;&quot;&gt;&lt;b&gt;Double Buffer&lt;/b&gt;&lt;/font&gt;" style="text;html=1;strokeColor=none;fillColor=none;align=center;verticalAlign=middle;whiteSpace=wrap;rounded=0;" parent="1" vertex="1">
          <mxGeometry x="352.5" y="500" width="125" height="30" as="geometry" />
        </mxCell>
      </root>
    </mxGraphModel>
  </diagram>
</mxfile>
